<svg xmlns="http://www.w3.org/2000/svg" viewBox="0 0 200 200" fill="none">
  <rect width="200" height="200" rx="8" fill="#1a1a1a"/>
  <rect x="16" y="16" width="48" height="48" rx="4" fill="#c39e6d"/>
  <rect x="72" y="16" width="16" height="16" rx="2" fill="#fff"/>
  <rect x="96" y="16" width="16" height="16" rx="2" fill="#fff"/>
  <rect x="120" y="16" width="16" height="16" rx="2" fill="#fff"/>
  <rect x="144" y="16" width="16" height="16" rx="2" fill="#fff"/>
  <rect x="168" y="16" width="16" height="16" rx="2" fill="#fff"/>
  <rect x="16" y="40" width="16" height="16" rx="2" fill="#fff"/>
  <rect x="48" y="40" width="16" height="16" rx="2" fill="#fff"/>
  <rect x="80" y="40" width="16" height="16" rx="2" fill="#fff"/>
  <rect x="112" y="40" width="16" height="16" rx="2" fill="#fff"/>
  <rect x="144" y="40" width="16" height="16" rx="2" fill="#fff"/>
  <rect x="168" y="40" width="16" height="16" rx="2" fill="#fff"/>
  <rect x="16" y="64" width="16" height="16" rx="2" fill="#fff"/>
  <rect x="48" y="64" width="16" height="16" rx="2" fill="#fff"/>
  <rect x="72" y="64" width="48" height="16" rx="2" fill="#c39e6d"/>
  <rect x="128" y="64" width="16" height="16" rx="2" fill="#fff"/>
  <rect x="168" y="64" width="16" height="16" rx="2" fill="#fff"/>
  <rect x="16" y="88" width="16" height="16" rx="2" fill="#fff"/>
  <rect x="48" y="88" width="16" height="16" rx="2" fill="#fff"/>
  <rect x="80" y="88" width="16" height="16" rx="2" fill="#fff"/>
  <rect x="112" y="88" width="16" height="16" rx="2" fill="#fff"/>
  <rect x="144" y="88" width="48" height="16" rx="2" fill="#c39e6d"/>
  <rect x="16" y="112" width="48" height="16" rx="2" fill="#c39e6d"/>
  <rect x="72" y="112" width="16" height="16" rx="2" fill="#fff"/>
  <rect x="96" y="112" width="16" height="16" rx="2" fill="#fff"/>
  <rect x="120" y="112" width="16" height="16" rx="2" fill="#fff"/>
  <rect x="144" y="112" width="16" height="16" rx="2" fill="#fff"/>
  <rect x="168" y="112" width="16" height="16" rx="2" fill="#fff"/>
  <rect x="16" y="136" width="16" height="16" rx="2" fill="#fff"/>
  <rect x="48" y="136" width="16" height="16" rx="2" fill="#fff"/>
  <rect x="80" y="136" width="16" height="16" rx="2" fill="#fff"/>
  <rect x="112" y="136" width="16" height="16" rx="2" fill="#fff"/>
  <rect x="144" y="136" width="16" height="16" rx="2" fill="#fff"/>
  <rect x="168" y="136" width="16" height="16" rx="2" fill="#fff"/>
  <rect x="16" y="160" width="16" height="16" rx="2" fill="#fff"/>
  <rect x="48" y="160" width="16" height="16" rx="2" fill="#fff"/>
  <rect x="72" y="160" width="16" height="16" rx="2" fill="#fff"/>
  <rect x="96" y="160" width="48" height="16" rx="2" fill="#c39e6d"/>
  <rect x="152" y="160" width="16" height="16" rx="2" fill="#fff"/>
  <rect x="168" y="160" width="16" height="16" rx="2" fill="#fff"/>
</svg>
